<svg preserveAspectRatio="none" width="100%" height="100%" overflow="visible" style="display: block;" viewBox="0 0 565 131" fill="none" xmlns="http://www.w3.org/2000/svg">
<g id="ProRetoque.photo-logo">
<path d="M26.4854 1.67253C41.8068 1.67253 49.5245 13.4924 49.5245 25.2934C49.5245 37.0944 41.8068 48.8198 26.4854 48.8198H10.86V72.3461H0.5V1.67253H26.4854ZM26.4854 38.248C35.1156 38.248 39.3736 31.6667 39.3736 25.0854C39.3736 18.5041 35.1156 11.8282 26.4854 11.8282H10.86V38.248H26.4854Z" fill="black"/>
<path d="M80.1861 36.4892C88.8163 36.4892 93.0743 30.324 93.0743 24.1776C93.0743 18.0313 88.8163 11.9606 80.1861 11.9606H64.4466V72.3272H54.2958V1.67253H80.1861C95.6215 1.67253 103.339 12.9818 103.339 24.1776C103.339 34.1631 97.1423 43.6568 84.9574 45.7749L107.388 72.3272H94.0818L68.1914 41.3307V36.4892H80.1861Z" fill="black"/>
<path d="M116.417 11.223C122.919 4.66061 132.043 0.518912 142.004 0.518912C151.965 0.518912 161.089 4.66061 167.685 11.223C174.072 17.7854 178.235 26.7875 178.235 36.7729C178.235 46.7584 174.072 55.7604 167.685 62.3228C161.089 68.9987 152.041 73.0269 142.004 73.0269C131.967 73.0269 122.919 68.9798 116.417 62.3228C110.03 55.7604 105.867 46.7584 105.867 36.7729C105.867 26.7875 110.03 17.7854 116.417 11.223Z" fill="black"/>
<path d="M184.489 72.3272H183.006V1.63471H206.882C234.521 1.63471 234.521 42.9382 206.882 42.9382H195.723L227.507 72.3272H225.245L193.461 42.9382V41.4252H206.882C232.544 41.4252 232.544 3.24222 206.882 3.24222H184.47V72.3272H184.489Z" fill="black"/>
<path d="M235.053 70.8142H272.805V72.3272H233.418V1.72927H272.596V3.24222H235.034V36.1677H271.779V37.7752H235.034V70.7953L235.053 70.8142Z" fill="black"/>
<path d="M323.389 11.2041C329.89 4.54713 339.033 0.518912 348.975 0.518912C358.917 0.518912 368.06 4.54713 374.675 11.2041C381.176 17.7476 385.339 26.8253 385.339 36.7918C385.339 46.7584 381.176 55.836 374.675 62.3795C368.079 69.0365 359.031 73.0647 348.975 73.0647C338.919 73.0647 329.89 69.0365 323.389 62.3795C316.887 55.836 312.724 46.7584 312.724 36.7918C312.724 26.8253 316.887 17.7476 323.389 11.2041ZM373.554 12.3955C367.262 6.04117 358.536 2.12642 348.975 2.12642C339.413 2.12642 330.802 6.06008 324.51 12.3955C318.313 18.6365 314.359 27.2035 314.359 36.7729C314.359 46.3423 318.313 54.9094 324.51 61.1503C330.802 67.5047 339.432 71.4194 348.975 71.4194C358.517 71.4194 367.262 67.4857 373.554 61.1503C379.751 54.9094 383.609 46.3423 383.609 36.7729C383.609 27.2035 379.751 18.6365 373.554 12.3955Z" fill="black"/>
<path d="M462.364 72.0435H459.741L450.179 63.571C443.849 69.5093 435.39 73.0458 426.019 73.0458C416.153 73.0458 407.105 69.0176 400.661 62.3606C394.216 55.8171 390.092 46.7395 390.092 36.7729C390.092 26.8064 394.216 17.7287 400.661 11.1852C407.105 4.52822 416.153 0.5 426.019 0.5C435.884 0.5 444.933 4.52822 451.472 11.1852C457.916 17.7287 462.041 26.8064 462.041 36.7729C462.041 46.7395 457.916 55.8171 451.472 62.3606L462.345 72.0246L462.364 72.0435ZM450.388 12.3955C444.153 6.04117 435.599 2.12642 426.038 2.12642C416.476 2.12642 408.017 6.06008 401.782 12.3955C395.642 18.6365 391.726 27.2035 391.726 36.7729C391.726 46.3423 395.642 54.9094 401.782 61.1503C408.017 67.5047 416.571 71.4194 426.038 71.4194C434.896 71.4194 442.956 67.9964 448.982 62.4552L427.749 43.619H430.163L450.179 61.3394L450.388 61.1314C456.528 54.8905 460.444 46.3234 460.444 36.754C460.444 27.1846 456.528 18.6175 450.388 12.3766V12.3955Z" fill="black"/>
<path d="M467.44 52.8669V1.63471H469.055V52.9804C469.055 65.1596 481.43 71.1925 492.284 71.1925C503.139 71.1925 515.514 65.1596 515.514 52.8669V1.63471H517.129V52.9804C517.129 65.9728 503.937 72.8189 492.265 72.8189C480.594 72.8189 467.401 65.9728 467.401 52.8858L467.44 52.8669Z" fill="black"/>
<path d="M526.577 70.6251H564.367V72.1381H524.961V1.63471H564.177V3.14766H526.596V36.0354H563.378V37.6429H526.596V70.6251H526.577Z" fill="black"/>
<path d="M270.524 1.72927V3.24222H294.4V72.3272H295.882V3.24222H319.777V1.72927H270.524Z" fill="black"/>
<path d="M366.748 119.569C366.463 119.569 366.216 119.455 365.988 119.247C365.76 119.021 365.665 118.737 365.665 118.359C365.665 118.018 365.779 117.735 365.988 117.508C366.216 117.281 366.463 117.186 366.748 117.186C367.033 117.186 367.281 117.3 367.509 117.508C367.737 117.735 367.832 117.999 367.832 118.359C367.832 118.737 367.718 119.039 367.471 119.247C367.243 119.474 366.995 119.569 366.748 119.569Z" fill="var(--fill-0, black)"/>
<path d="M391.897 103.588C392.829 101.432 394.178 99.8061 395.908 98.7092C397.638 97.6123 399.558 97.0639 401.611 97.0639C403.208 97.0639 404.672 97.3475 406.002 97.9338C407.333 98.5201 408.473 99.3144 409.443 100.317C410.393 101.338 411.135 102.548 411.648 103.948C412.161 105.347 412.427 106.879 412.427 108.543C412.427 110.208 412.161 111.683 411.629 113.063C411.097 114.463 410.355 115.654 409.405 116.675C408.454 117.697 407.314 118.491 405.964 119.058C404.633 119.645 403.189 119.928 401.611 119.928C400.585 119.928 399.558 119.796 398.57 119.512C397.581 119.229 396.669 118.812 395.813 118.264C394.958 117.716 394.197 117.054 393.513 116.24C392.829 115.446 392.278 114.519 391.859 113.442H391.726V130.5H390.643V97.688H391.726V103.551H391.878L391.897 103.588ZM411.401 108.562C411.401 107.163 411.173 105.82 410.716 104.534C410.26 103.248 409.614 102.132 408.758 101.168C407.903 100.203 406.877 99.4278 405.679 98.8416C404.481 98.2553 403.113 97.9716 401.611 97.9716C400.109 97.9716 398.855 98.2553 397.638 98.8227C396.441 99.39 395.395 100.146 394.521 101.092C393.646 102.038 392.962 103.153 392.449 104.439C391.954 105.725 391.688 107.087 391.688 108.524C391.688 109.962 391.935 111.323 392.449 112.609C392.943 113.895 393.646 115.011 394.521 115.957C395.395 116.902 396.441 117.659 397.638 118.226C398.836 118.794 400.166 119.077 401.611 119.077C403.056 119.077 404.462 118.794 405.679 118.226C406.896 117.659 407.922 116.902 408.758 115.957C409.595 115.011 410.26 113.895 410.716 112.609C411.173 111.323 411.401 109.981 411.401 108.581V108.562Z" fill="var(--fill-0, black)"/>
<path d="M434.782 103.399C435.086 102.397 435.542 101.508 436.132 100.733C436.721 99.9574 437.386 99.2955 438.127 98.747C438.888 98.1986 439.705 97.7825 440.58 97.4988C441.454 97.2152 442.367 97.0828 443.317 97.0828C444.819 97.0828 446.073 97.3475 447.081 97.8771C448.088 98.4066 448.887 99.1063 449.476 99.9952C450.065 100.884 450.502 101.849 450.75 102.945C450.997 104.042 451.13 105.158 451.13 106.274V119.304H450.084V106.368C450.084 105.499 449.989 104.553 449.799 103.551C449.609 102.548 449.248 101.641 448.735 100.827C448.221 100.014 447.518 99.3333 446.644 98.7848C445.769 98.2364 444.648 97.9716 443.298 97.9716C442.1 97.9716 440.979 98.2175 439.933 98.6903C438.888 99.182 437.975 99.8628 437.196 100.771C436.417 101.678 435.808 102.775 435.352 104.08C434.896 105.385 434.668 106.86 434.668 108.506V119.285H433.622V83.8445H434.668V103.399H434.782Z" fill="var(--fill-0, black)"/>
<path d="M494.718 108.468C494.718 110.151 494.432 111.702 493.9 113.101C493.349 114.501 492.57 115.711 491.562 116.732C490.555 117.753 489.357 118.529 487.95 119.096C486.544 119.664 485.023 119.947 483.35 119.947C481.677 119.947 480.157 119.664 478.788 119.096C477.4 118.529 476.203 117.753 475.214 116.732C474.207 115.711 473.427 114.501 472.876 113.101C472.325 111.702 472.059 110.151 472.059 108.468C472.059 106.785 472.325 105.234 472.876 103.853C473.427 102.454 474.207 101.262 475.214 100.26C476.222 99.2576 477.419 98.4822 478.788 97.9149C480.176 97.3475 481.696 97.0639 483.35 97.0639C485.004 97.0639 486.544 97.3475 487.95 97.9149C489.338 98.4822 490.555 99.2576 491.562 100.26C492.57 101.262 493.349 102.454 493.9 103.853C494.451 105.253 494.718 106.785 494.718 108.468ZM493.672 108.468C493.672 107.03 493.444 105.669 492.969 104.383C492.494 103.097 491.809 101.981 490.916 101.035C490.022 100.09 488.939 99.3333 487.665 98.7848C486.392 98.2364 484.947 97.9716 483.35 97.9716C481.753 97.9716 480.309 98.2364 479.054 98.7848C477.799 99.3333 476.716 100.09 475.823 101.035C474.929 101.981 474.245 103.116 473.77 104.383C473.294 105.669 473.066 107.03 473.066 108.468C473.066 109.905 473.294 111.304 473.77 112.59C474.245 113.876 474.929 114.992 475.823 115.938C476.716 116.883 477.799 117.64 479.054 118.207C480.309 118.775 481.734 119.058 483.35 119.058C484.966 119.058 486.392 118.775 487.665 118.207C488.939 117.64 490.022 116.883 490.916 115.938C491.809 114.992 492.494 113.876 492.969 112.59C493.444 111.304 493.672 109.943 493.672 108.468Z" fill="var(--fill-0, black)"/>
<path d="M522.927 119.72C522.433 119.815 521.939 119.853 521.463 119.853C519.772 119.853 518.555 119.38 517.833 118.415C517.11 117.47 516.749 116.259 516.749 114.822V98.5957H512.035V97.7069H516.692V91.3714H517.738V97.7069H524.106V98.5957H517.738V114.822C517.738 116.297 518.099 117.337 518.821 117.98C519.543 118.623 520.494 118.945 521.692 118.945C522.566 118.945 523.364 118.812 524.087 118.529L524.22 119.323C523.84 119.474 523.402 119.607 522.908 119.701L522.927 119.72Z" fill="var(--fill-0, black)"/>
<path d="M564.5 108.468C564.5 110.151 564.215 111.702 563.683 113.101C563.131 114.501 562.352 115.711 561.344 116.732C560.337 117.753 559.139 118.529 557.733 119.096C556.326 119.664 554.805 119.947 553.133 119.947C551.46 119.947 549.939 119.664 548.57 119.096C547.183 118.529 545.985 117.753 544.997 116.732C543.989 115.711 543.21 114.501 542.658 113.101C542.107 111.702 541.841 110.151 541.841 108.468C541.841 106.785 542.107 105.234 542.658 103.853C543.21 102.454 543.989 101.262 544.997 100.26C546.004 99.2576 547.202 98.4822 548.57 97.9149C549.958 97.3475 551.479 97.0639 553.133 97.0639C554.786 97.0639 556.326 97.3475 557.733 97.9149C559.12 98.4822 560.337 99.2576 561.344 100.26C562.352 101.262 563.131 102.454 563.683 103.853C564.234 105.253 564.5 106.785 564.5 108.468ZM563.454 108.468C563.454 107.03 563.226 105.669 562.751 104.383C562.276 103.097 561.592 101.981 560.698 101.035C559.805 100.09 558.721 99.3333 557.448 98.7848C556.174 98.2364 554.729 97.9716 553.133 97.9716C551.536 97.9716 550.091 98.2364 548.836 98.7848C547.582 99.3333 546.498 100.09 545.605 101.035C544.712 101.981 544.027 103.116 543.552 104.383C543.077 105.669 542.849 107.03 542.849 108.468C542.849 109.905 543.077 111.304 543.552 112.59C544.027 113.876 544.712 114.992 545.605 115.938C546.498 116.883 547.582 117.64 548.836 118.207C550.091 118.775 551.517 119.058 553.133 119.058C554.748 119.058 556.174 118.775 557.448 118.207C558.721 117.64 559.805 116.883 560.698 115.938C561.592 114.992 562.276 113.876 562.751 112.59C563.226 111.304 563.454 109.943 563.454 108.468Z" fill="var(--fill-0, black)"/>
<path d="M26.4854 1.67253C41.8068 1.67253 49.5245 13.4924 49.5245 25.2934C49.5245 37.0944 41.8068 48.8198 26.4854 48.8198H10.86V72.3461H0.5V1.67253H26.4854ZM26.4854 38.248C35.1156 38.248 39.3736 31.6667 39.3736 25.0854C39.3736 18.5041 35.1156 11.8282 26.4854 11.8282H10.86V38.248H26.4854Z" stroke="var(--stroke-0, black)" stroke-miterlimit="10"/>
<path d="M80.1861 36.4892C88.8163 36.4892 93.0743 30.324 93.0743 24.1776C93.0743 18.0313 88.8163 11.9606 80.1861 11.9606H64.4466V72.3272H54.2958V1.67253H80.1861C95.6215 1.67253 103.339 12.9818 103.339 24.1776C103.339 34.1631 97.1423 43.6568 84.9574 45.7749L107.388 72.3272H94.0818L68.1914 41.3307V36.4892H80.1861Z" stroke="var(--stroke-0, black)" stroke-miterlimit="10"/>
<path d="M116.417 11.223C122.919 4.66061 132.043 0.518912 142.004 0.518912C151.965 0.518912 161.089 4.66061 167.685 11.223C174.072 17.7854 178.235 26.7875 178.235 36.7729C178.235 46.7584 174.072 55.7604 167.685 62.3228C161.089 68.9987 152.041 73.0269 142.004 73.0269C131.967 73.0269 122.919 68.9798 116.417 62.3228C110.03 55.7604 105.867 46.7584 105.867 36.7729C105.867 26.7875 110.03 17.7854 116.417 11.223Z" stroke="var(--stroke-0, black)" stroke-miterlimit="10"/>
<path d="M184.489 72.3272H183.006V1.63471H206.882C234.521 1.63471 234.521 42.9382 206.882 42.9382H195.723L227.507 72.3272H225.245L193.461 42.9382V41.4252H206.882C232.544 41.4252 232.544 3.24222 206.882 3.24222H184.47V72.3272H184.489Z" stroke="var(--stroke-0, black)" stroke-miterlimit="10"/>
<path d="M235.053 70.8142H272.805V72.3272H233.418V1.72927H272.596V3.24222H235.034V36.1677H271.779V37.7752H235.034V70.7953L235.053 70.8142Z" stroke="var(--stroke-0, black)" stroke-miterlimit="10"/>
<path d="M323.389 11.2041C329.89 4.54713 339.033 0.518912 348.975 0.518912C358.917 0.518912 368.06 4.54713 374.675 11.2041C381.176 17.7476 385.339 26.8253 385.339 36.7918C385.339 46.7584 381.176 55.836 374.675 62.3795C368.079 69.0365 359.031 73.0647 348.975 73.0647C338.919 73.0647 329.89 69.0365 323.389 62.3795C316.887 55.836 312.724 46.7584 312.724 36.7918C312.724 26.8253 316.887 17.7476 323.389 11.2041ZM373.554 12.3955C367.262 6.04117 358.536 2.12642 348.975 2.12642C339.413 2.12642 330.802 6.06008 324.51 12.3955C318.313 18.6365 314.359 27.2035 314.359 36.7729C314.359 46.3423 318.313 54.9094 324.51 61.1503C330.802 67.5047 339.432 71.4194 348.975 71.4194C358.517 71.4194 367.262 67.4857 373.554 61.1503C379.751 54.9094 383.609 46.3423 383.609 36.7729C383.609 27.2035 379.751 18.6365 373.554 12.3955Z" stroke="var(--stroke-0, black)" stroke-miterlimit="10"/>
<path d="M462.364 72.0435H459.741L450.179 63.571C443.849 69.5093 435.39 73.0458 426.019 73.0458C416.153 73.0458 407.105 69.0176 400.661 62.3606C394.216 55.8171 390.092 46.7395 390.092 36.7729C390.092 26.8064 394.216 17.7287 400.661 11.1852C407.105 4.52822 416.153 0.5 426.019 0.5C435.884 0.5 444.933 4.52822 451.472 11.1852C457.916 17.7287 462.041 26.8064 462.041 36.7729C462.041 46.7395 457.916 55.8171 451.472 62.3606L462.345 72.0246L462.364 72.0435ZM450.388 12.3955C444.153 6.04117 435.599 2.12642 426.038 2.12642C416.476 2.12642 408.017 6.06008 401.782 12.3955C395.642 18.6365 391.726 27.2035 391.726 36.7729C391.726 46.3423 395.642 54.9094 401.782 61.1503C408.017 67.5047 416.571 71.4194 426.038 71.4194C434.896 71.4194 442.956 67.9964 448.982 62.4552L427.749 43.619H430.163L450.179 61.3394L450.388 61.1314C456.528 54.8905 460.444 46.3234 460.444 36.754C460.444 27.1846 456.528 18.6175 450.388 12.3766V12.3955Z" stroke="var(--stroke-0, black)" stroke-miterlimit="10"/>
<path d="M467.44 52.8669V1.63471H469.055V52.9804C469.055 65.1596 481.43 71.1925 492.284 71.1925C503.139 71.1925 515.514 65.1596 515.514 52.8669V1.63471H517.129V52.9804C517.129 65.9728 503.937 72.8189 492.265 72.8189C480.594 72.8189 467.401 65.9728 467.401 52.8858L467.44 52.8669Z" stroke="var(--stroke-0, black)" stroke-miterlimit="10"/>
<path d="M526.577 70.6251H564.367V72.1381H524.961V1.63471H564.177V3.14766H526.596V36.0354H563.378V37.6429H526.596V70.6251H526.577Z" stroke="var(--stroke-0, black)" stroke-miterlimit="10"/>
<path d="M270.524 1.72927V3.24222H294.4V72.3272H295.882V3.24222H319.777V1.72927H270.524Z" stroke="var(--stroke-0, black)" stroke-miterlimit="10"/>
<path d="M366.748 119.569C366.463 119.569 366.216 119.455 365.988 119.247C365.76 119.021 365.665 118.737 365.665 118.359C365.665 118.018 365.779 117.735 365.988 117.508C366.216 117.281 366.463 117.186 366.748 117.186C367.033 117.186 367.281 117.3 367.509 117.508C367.737 117.735 367.832 117.999 367.832 118.359C367.832 118.737 367.718 119.039 367.471 119.247C367.243 119.474 366.995 119.569 366.748 119.569Z" stroke="var(--stroke-0, black)" stroke-miterlimit="10"/>
<path d="M391.897 103.588C392.829 101.432 394.178 99.8061 395.908 98.7092C397.638 97.6123 399.558 97.0639 401.611 97.0639C403.208 97.0639 404.672 97.3475 406.002 97.9338C407.333 98.5201 408.473 99.3144 409.443 100.317C410.393 101.338 411.135 102.548 411.648 103.948C412.161 105.347 412.427 106.879 412.427 108.543C412.427 110.208 412.161 111.683 411.629 113.063C411.097 114.463 410.355 115.654 409.405 116.675C408.454 117.697 407.314 118.491 405.964 119.058C404.633 119.645 403.189 119.928 401.611 119.928C400.585 119.928 399.558 119.796 398.57 119.512C397.581 119.229 396.669 118.812 395.813 118.264C394.958 117.716 394.197 117.054 393.513 116.24C392.829 115.446 392.278 114.519 391.859 113.442H391.726V130.5H390.643V97.688H391.726V103.551H391.878L391.897 103.588ZM411.401 108.562C411.401 107.163 411.173 105.82 410.716 104.534C410.26 103.248 409.614 102.132 408.758 101.168C407.903 100.203 406.877 99.4278 405.679 98.8416C404.481 98.2553 403.113 97.9716 401.611 97.9716C400.109 97.9716 398.855 98.2553 397.638 98.8227C396.441 99.39 395.395 100.146 394.521 101.092C393.646 102.038 392.962 103.153 392.449 104.439C391.954 105.725 391.688 107.087 391.688 108.524C391.688 109.962 391.935 111.323 392.449 112.609C392.943 113.895 393.646 115.011 394.521 115.957C395.395 116.902 396.441 117.659 397.638 118.226C398.836 118.794 400.166 119.077 401.611 119.077C403.056 119.077 404.462 118.794 405.679 118.226C406.896 117.659 407.922 116.902 408.758 115.957C409.595 115.011 410.26 113.895 410.716 112.609C411.173 111.323 411.401 109.981 411.401 108.581V108.562Z" stroke="var(--stroke-0, black)" stroke-miterlimit="10"/>
<path d="M434.782 103.399C435.086 102.397 435.542 101.508 436.132 100.733C436.721 99.9574 437.386 99.2955 438.127 98.747C438.888 98.1986 439.705 97.7825 440.58 97.4988C441.454 97.2152 442.367 97.0828 443.317 97.0828C444.819 97.0828 446.073 97.3475 447.081 97.8771C448.088 98.4066 448.887 99.1063 449.476 99.9952C450.065 100.884 450.502 101.849 450.75 102.945C450.997 104.042 451.13 105.158 451.13 106.274V119.304H450.084V106.368C450.084 105.499 449.989 104.553 449.799 103.551C449.609 102.548 449.248 101.641 448.735 100.827C448.221 100.014 447.518 99.3333 446.644 98.7848C445.769 98.2364 444.648 97.9716 443.298 97.9716C442.1 97.9716 440.979 98.2175 439.933 98.6903C438.888 99.182 437.975 99.8628 437.196 100.771C436.417 101.678 435.808 102.775 435.352 104.08C434.896 105.385 434.668 106.86 434.668 108.506V119.285H433.622V83.8445H434.668V103.399H434.782Z" stroke="var(--stroke-0, black)" stroke-miterlimit="10"/>
<path d="M494.718 108.468C494.718 110.151 494.432 111.702 493.9 113.101C493.349 114.501 492.57 115.711 491.562 116.732C490.555 117.753 489.357 118.529 487.95 119.096C486.544 119.664 485.023 119.947 483.35 119.947C481.677 119.947 480.157 119.664 478.788 119.096C477.4 118.529 476.203 117.753 475.214 116.732C474.207 115.711 473.427 114.501 472.876 113.101C472.325 111.702 472.059 110.151 472.059 108.468C472.059 106.785 472.325 105.234 472.876 103.853C473.427 102.454 474.207 101.262 475.214 100.26C476.222 99.2576 477.419 98.4822 478.788 97.9149C480.176 97.3475 481.696 97.0639 483.35 97.0639C485.004 97.0639 486.544 97.3475 487.95 97.9149C489.338 98.4822 490.555 99.2576 491.562 100.26C492.57 101.262 493.349 102.454 493.9 103.853C494.451 105.253 494.718 106.785 494.718 108.468ZM493.672 108.468C493.672 107.03 493.444 105.669 492.969 104.383C492.494 103.097 491.809 101.981 490.916 101.035C490.022 100.09 488.939 99.3333 487.665 98.7848C486.392 98.2364 484.947 97.9716 483.35 97.9716C481.753 97.9716 480.309 98.2364 479.054 98.7848C477.799 99.3333 476.716 100.09 475.823 101.035C474.929 101.981 474.245 103.116 473.77 104.383C473.294 105.669 473.066 107.03 473.066 108.468C473.066 109.905 473.294 111.304 473.77 112.59C474.245 113.876 474.929 114.992 475.823 115.938C476.716 116.883 477.799 117.64 479.054 118.207C480.309 118.775 481.734 119.058 483.35 119.058C484.966 119.058 486.392 118.775 487.665 118.207C488.939 117.64 490.022 116.883 490.916 115.938C491.809 114.992 492.494 113.876 492.969 112.59C493.444 111.304 493.672 109.943 493.672 108.468Z" stroke="var(--stroke-0, black)" stroke-miterlimit="10"/>
<path d="M522.927 119.72C522.433 119.815 521.939 119.853 521.463 119.853C519.772 119.853 518.555 119.38 517.833 118.415C517.11 117.47 516.749 116.259 516.749 114.822V98.5957H512.035V97.7069H516.692V91.3714H517.738V97.7069H524.106V98.5957H517.738V114.822C517.738 116.297 518.099 117.337 518.821 117.98C519.543 118.623 520.494 118.945 521.692 118.945C522.566 118.945 523.364 118.812 524.087 118.529L524.22 119.323C523.84 119.474 523.402 119.607 522.908 119.701L522.927 119.72Z" stroke="var(--stroke-0, black)" stroke-miterlimit="10"/>
<path d="M564.5 108.468C564.5 110.151 564.215 111.702 563.683 113.101C563.131 114.501 562.352 115.711 561.344 116.732C560.337 117.753 559.139 118.529 557.733 119.096C556.326 119.664 554.805 119.947 553.133 119.947C551.46 119.947 549.939 119.664 548.57 119.096C547.183 118.529 545.985 117.753 544.997 116.732C543.989 115.711 543.21 114.501 542.658 113.101C542.107 111.702 541.841 110.151 541.841 108.468C541.841 106.785 542.107 105.234 542.658 103.853C543.21 102.454 543.989 101.262 544.997 100.26C546.004 99.2576 547.202 98.4822 548.57 97.9149C549.958 97.3475 551.479 97.0639 553.133 97.0639C554.786 97.0639 556.326 97.3475 557.733 97.9149C559.12 98.4822 560.337 99.2576 561.344 100.26C562.352 101.262 563.131 102.454 563.683 103.853C564.234 105.253 564.5 106.785 564.5 108.468ZM563.454 108.468C563.454 107.03 563.226 105.669 562.751 104.383C562.276 103.097 561.592 101.981 560.698 101.035C559.805 100.09 558.721 99.3333 557.448 98.7848C556.174 98.2364 554.729 97.9716 553.133 97.9716C551.536 97.9716 550.091 98.2364 548.836 98.7848C547.582 99.3333 546.498 100.09 545.605 101.035C544.712 101.981 544.027 103.116 543.552 104.383C543.077 105.669 542.849 107.03 542.849 108.468C542.849 109.905 543.077 111.304 543.552 112.59C544.027 113.876 544.712 114.992 545.605 115.938C546.498 116.883 547.582 117.64 548.836 118.207C550.091 118.775 551.517 119.058 553.133 119.058C554.748 119.058 556.174 118.775 557.448 118.207C558.721 117.64 559.805 116.883 560.698 115.938C561.592 114.992 562.276 113.876 562.751 112.59C563.226 111.304 563.454 109.943 563.454 108.468Z" stroke="var(--stroke-0, black)" stroke-miterlimit="10"/>
</g>
</svg>
